{
    "asset" : {
        "generator" : "Khronos glTF Blender I/O v1.0.5",
        "version" : "2.0"
    },
    "scene" : 0,
    "scenes" : [
        {
            "name" : "Scene",
            "nodes" : [
                0,
                1,
                2,
                3
            ]
        }
    ],
    "nodes" : [
        {
            "name" : "Light",
            "rotation" : [
                0.16907575726509094,
                0.7558803558349609,
                -0.27217137813568115,
                0.570947527885437
            ],
            "translation" : [
                4.076245307922363,
                5.903861999511719,
                -1.0054539442062378
            ]
        },
        {
            "name" : "Camera",
            "rotation" : [
                0.483536034822464,
                0.33687159419059753,
                -0.20870360732078552,
                0.7804827094078064
            ],
            "translation" : [
                7.294761657714844,
                5.632861614227295,
                6.829250335693359
            ]
        },
        {
            "mesh" : 0,
            "name" : "Cylinder",
            "scale" : [
                0.20000004768371582,
                0.20000004768371582,
                0.20000004768371582
            ],
            "translation" : [
                0,
                0.10062000155448914,
                0
            ]
        },
        {
            "mesh" : 1,
            "name" : "Cylinder.001",
            "scale" : [
                0.07200001925230026,
                0.20000004768371582,
                0.07200001925230026
            ],
            "translation" : [
                0,
                0.10093000531196594,
                0
            ]
        }
    ],
    "materials" : [
        {
            "doubleSided" : true,
            "name" : "Material.001",
            "pbrMetallicRoughness" : {
                "baseColorFactor" : [
                    1,
                    0.969936728477478,
                    0.969936728477478,
                    1
                ],
                "metallicFactor" : 0,
                "roughnessFactor" : 0.5
            }
        },
        {
            "doubleSided" : true,
            "name" : "Material.002",
            "pbrMetallicRoughness" : {
                "baseColorFactor" : [
                    0.8000000715255737,
                    0.2522880733013153,
                    0.05184367299079895,
                    1
                ],
                "metallicFactor" : 0,
                "roughnessFactor" : 0.5
            }
        }
    ],
    "meshes" : [
        {
            "name" : "Cylinder.001",
            "primitives" : [
                {
                    "attributes" : {
                        "POSITION" : 0,
                        "NORMAL" : 1
                    },
                    "indices" : 2,
                    "material" : 0
                }
            ]
        },
        {
            "name" : "Cylinder.003",
            "primitives" : [
                {
                    "attributes" : {
                        "POSITION" : 3,
                        "NORMAL" : 4
                    },
                    "indices" : 5,
                    "material" : 1
                }
            ]
        }
    ],
    "accessors" : [
        {
            "bufferView" : 0,
            "componentType" : 5126,
            "count" : 3964,
            "max" : [
                1,
                1.0254191160202026,
                1.000352144241333
            ],
            "min" : [
                -1,
                -1.007542610168457,
                -1.0003385543823242
            ],
            "type" : "VEC3"
        },
        {
            "bufferView" : 1,
            "componentType" : 5126,
            "count" : 3964,
            "type" : "VEC3"
        },
        {
            "bufferView" : 2,
            "componentType" : 5123,
            "count" : 23784,
            "type" : "SCALAR"
        },
        {
            "bufferView" : 3,
            "componentType" : 5126,
            "count" : 3876,
            "max" : [
                1,
                1.0030462741851807,
                1
            ],
            "min" : [
                -1,
                -1.0017813444137573,
                -1
            ],
            "type" : "VEC3"
        },
        {
            "bufferView" : 4,
            "componentType" : 5126,
            "count" : 3876,
            "type" : "VEC3"
        },
        {
            "bufferView" : 5,
            "componentType" : 5123,
            "count" : 23256,
            "type" : "SCALAR"
        }
    ],
    "bufferViews" : [
        {
            "buffer" : 0,
            "byteLength" : 47568,
            "byteOffset" : 0
        },
        {
            "buffer" : 0,
            "byteLength" : 47568,
            "byteOffset" : 47568
        },
        {
            "buffer" : 0,
            "byteLength" : 47568,
            "byteOffset" : 95136
        },
        {
            "buffer" : 0,
            "byteLength" : 46512,
            "byteOffset" : 142704
        },
        {
            "buffer" : 0,
            "byteLength" : 46512,
            "byteOffset" : 189216
        },
        {
            "buffer" : 0,
            "byteLength" : 46512,
            "byteOffset" : 235728
        }
    ],
    "buffers" : [
        {
            "byteLength" : 282240,
            "uri" : "data:application/octet-stream;base64,"
        }
    ]
}
